<svg width="16" height="17" viewBox="0 0 16 17" fill="none" xmlns="http://www.w3.org/2000/svg">
<path d="M8 8.14355C6.9 8.14355 5.95833 7.75189 5.175 6.96855C4.39167 6.18522 4 5.24355 4 4.14355C4 3.04355 4.39167 2.10189 5.175 1.31855C5.95833 0.535222 6.9 0.143555 8 0.143555C9.1 0.143555 10.0417 0.535222 10.825 1.31855C11.6083 2.10189 12 3.04355 12 4.14355C12 5.24355 11.6083 6.18522 10.825 6.96855C10.0417 7.75189 9.1 8.14355 8 8.14355ZM14 16.1436H2C1.45 16.1436 0.979333 15.9479 0.588 15.5566C0.196 15.1646 0 14.6936 0 14.1436V13.3436C0 12.7769 0.146 12.2559 0.438 11.7806C0.729334 11.3059 1.11667 10.9436 1.6 10.6936C2.63333 10.1769 3.68333 9.78922 4.75 9.53055C5.81667 9.27255 6.9 9.14355 8 9.14355C9.1 9.14355 10.1833 9.27255 11.25 9.53055C12.3167 9.78922 13.3667 10.1769 14.4 10.6936C14.8833 10.9436 15.2707 11.3059 15.562 11.7806C15.854 12.2559 16 12.7769 16 13.3436V14.1436C16 14.6936 15.8043 15.1646 15.413 15.5566C15.021 15.9479 14.55 16.1436 14 16.1436ZM2 14.1436H14V13.3436C14 13.1602 13.9543 12.9936 13.863 12.8436C13.771 12.6936 13.65 12.5769 13.5 12.4936C12.6 12.0436 11.6917 11.7059 10.775 11.4806C9.85833 11.2559 8.93333 11.1436 8 11.1436C7.06667 11.1436 6.14167 11.2559 5.225 11.4806C4.30833 11.7059 3.4 12.0436 2.5 12.4936C2.35 12.5769 2.22933 12.6936 2.138 12.8436C2.046 12.9936 2 13.1602 2 13.3436V14.1436ZM8 6.14355C8.55 6.14355 9.021 5.94755 9.413 5.55555C9.80433 5.16422 10 4.69355 10 4.14355C10 3.59355 9.80433 3.12289 9.413 2.73155C9.021 2.33955 8.55 2.14355 8 2.14355C7.45 2.14355 6.97933 2.33955 6.588 2.73155C6.196 3.12289 6 3.59355 6 4.14355C6 4.69355 6.196 5.16422 6.588 5.55555C6.97933 5.94755 7.45 6.14355 8 6.14355Z" fill="#686868"/>
</svg>
